<?xml version="1.0" encoding="UTF-8"?><svg id="Layer_1" xmlns="http://www.w3.org/2000/svg" viewBox="0 0 300 75.6"><rect x="94.53" y="3.53" width="97.97" height="2.27" style="fill:#005bab; stroke-width:0px;"/><path d="M201.2,0h6.19l-.23,1.16h-4.82l-.61,3.08h4.59l-.23,1.15h-4.59l-.65,3.28h4.93l-.24,1.2h-6.3l1.95-9.87Z" style="fill:#005bab; stroke-width:0px;"/><path d="M208.55,7.83c-.11.52.01,1.24,1.26,1.24.53,0,.95-.1,1.29-.44.17-.18.3-.41.35-.64.13-.67-.32-.79-1.3-1.03-1.37-.33-2.52-.61-2.23-2.05.25-1.26,1.5-2.08,3.09-2.08.86,0,2.01.25,2.26,1.06.1.38.04.71-.02,1h-1.31c.25-1.04-.64-1.12-1.1-1.12-.19,0-1.39,0-1.59.99-.12.63.46.78.8.87,1.81.45,2.2.56,2.53.94.31.35.35.83.27,1.27-.15.76-.7,1.42-1.27,1.73-.67.37-1.42.47-2.13.47-1.39,0-2.58-.57-2.24-2.23h1.35Z" style="fill:#005bab; stroke-width:0px;"/><path d="M214.21,2.98h1.22l.28-1.43,1.35-.41-.37,1.85h1.53l-.19.94h-1.53l-.81,4.11c-.07.34-.18.92.74.92.26,0,.51-.04.63-.07l-.2,1c-.24.04-.62.08-1.08.08-1.18,0-1.67-.34-1.45-1.46l.9-4.58h-1.22l.19-.94Z" style="fill:#005bab; stroke-width:0px;"/><path d="M222.29,9.87c-.03-.34,0-.67.08-1.03-.84,1.14-1.79,1.25-2.36,1.25-1.57,0-2.25-.89-2.02-2.02.11-.54.47-1.42,1.6-2.01.82-.41,1.92-.45,2.47-.45.33,0,.53.01.92.04.17-.85.24-1.22.05-1.52-.19-.34-.73-.45-1.1-.45-1.3,0-1.54.89-1.61,1.16h-1.28c.11-.35.25-.83.74-1.3.63-.57,1.63-.74,2.36-.74,1,0,2,.31,2.23,1.01.14.41.09.74.02,1.05l-.7,3.28c-.02.11-.19,1.03-.23,1.72h-1.16ZM222.07,6.49c-.52,0-2.47,0-2.75,1.39-.09.44.04,1.19,1.19,1.19.66,0,1.2-.26,1.61-.74.38-.46.47-.85.68-1.81-.23-.03-.42-.04-.73-.04Z" style="fill:#005bab; stroke-width:0px;"/><path d="M227.8,4c.24-.31.91-1.17,2.47-1.17.68,0,1.51.16,2,.87.26.39.59,1.08.3,2.58-.26,1.33-.72,2.05-1.15,2.5-.7.78-1.7,1.18-2.64,1.18-.33,0-.94-.04-1.44-.44-.34-.26-.44-.49-.54-.7l-.23,1.04h-1.24l.27-1.23,1.7-8.64h1.29l-.79,4ZM229.8,3.7c-1.97,0-2.42,2.29-2.51,2.73-.09.45-.51,2.6,1.4,2.6,1.59,0,2.29-1.54,2.51-2.66.14-.68.39-2.66-1.4-2.66Z" style="fill:#005bab; stroke-width:0px;"/><path d="M235.33.01h1.29l-1.94,9.85h-1.29L235.33.01Z" style="fill:#005bab; stroke-width:0px;"/><path d="M238.63.03h1.54l-.28,1.41h-1.54l.28-1.41ZM238.18,3.01h1.29l-1.35,6.86h-1.29l1.35-6.86Z" style="fill:#005bab; stroke-width:0px;"/><path d="M241.41,7.83c-.11.52.02,1.24,1.26,1.24.53,0,.95-.1,1.29-.44.17-.18.3-.41.34-.64.13-.67-.32-.79-1.3-1.03-1.37-.33-2.52-.61-2.23-2.05.25-1.26,1.5-2.08,3.09-2.08.86,0,2.02.25,2.26,1.06.1.38.03.71-.02,1h-1.31c.25-1.04-.64-1.12-1.1-1.12-.19,0-1.39,0-1.59.99-.13.63.46.78.8.87,1.81.45,2.2.56,2.53.94.31.35.36.83.27,1.27-.15.76-.7,1.42-1.27,1.73-.67.37-1.42.47-2.13.47-1.39,0-2.58-.57-2.24-2.23h1.35Z" style="fill:#005bab; stroke-width:0px;"/><path d="M248.7.01h1.3l-.79,4.01c.57-.73,1.49-1.14,2.45-1.14.73,0,1.71.26,1.94,1.09.08.27.11.6-.08,1.6l-.85,4.29h-1.31l.8-4.06c.12-.62.38-1.94-1.09-1.94-.96,0-1.55.59-1.79.91-.29.38-.42,1.03-.5,1.45l-.72,3.63h-1.3L248.7.01Z" style="fill:#005bab; stroke-width:0px;"/><path d="M256.16,6.67c-.31,1.42.07,2.47,1.48,2.47.84,0,1.59-.44,1.9-1.42h1.29c-.11.34-.27.9-.87,1.43-.37.34-1.17.92-2.54.92-2.16,0-2.92-1.34-2.5-3.51.27-1.35.77-2.47,1.99-3.23.75-.46,1.57-.5,1.97-.5,3.07,0,2.47,2.72,2.22,3.84h-4.93ZM259.96,5.77c.14-.66.29-2.02-1.29-2.02-.83,0-1.94.5-2.27,2.02h3.56Z" style="fill:#005bab; stroke-width:0px;"/><path d="M268.71.01h1.28l-1.73,8.76c-.03.15-.12.74-.16,1.09h-1.29l.19-1.09c-.15.19-.35.48-.76.72-.63.38-1.33.51-1.79.51-.92,0-2.86-.48-2.26-3.48.51-2.61,2.23-3.75,3.84-3.75,1.48,0,1.79.87,1.9,1.16l.77-3.92ZM267.35,4.43c-.2-.35-.64-.7-1.37-.7-1.89,0-2.34,2.28-2.43,2.75-.24,1.22-.2,2.62,1.37,2.62,2.03,0,2.46-2.23,2.57-2.76.2-1,.07-1.54-.14-1.91Z" style="fill:#005bab; stroke-width:0px;"/><path d="M277.32,9.48h-1.26l1.57-7.78c-.76.47-1.51,1-2.3,1.34l.22-1.34c.36-.17,1.84-1.02,2.37-1.39h1.26l-1.85,9.16Z" style="fill:#005bab; stroke-width:0px;"/><path d="M286.16,4.58c-.47,2.31-1.66,5.1-4.33,5.1-1.35,0-2.3-.89-2-2.37h1.32c-.18.83.27,1.23,1.05,1.23,1.73,0,2.26-2.13,2.57-3.65v-.03c-.51.89-1.33,1.23-2.19,1.21-1.52-.06-2.26-1.22-2.01-2.84.27-1.74,1.73-3.11,3.47-3.11,2.53,0,2.57,2.19,2.11,4.46M283.85,1.25c-.97,0-1.69.69-1.91,1.77-.22,1.13.07,1.9,1.13,1.9s1.86-.79,2.09-1.9c.2-.97-.2-1.77-1.3-1.77" style="fill:#005bab; stroke-width:0px;"/><path d="M286.8,5.22c.47-2.31,1.66-5.1,4.33-5.1,1.35,0,2.31.89,2,2.37h-1.32c.18-.83-.28-1.23-1.05-1.23-1.72,0-2.26,2.14-2.51,3.34l.02.02c.51-.71,1.28-1.15,2.16-1.15,1.67,0,2.39,1.35,2.06,3.03-.37,1.8-1.86,3.18-3.6,3.18-2.53,0-2.54-2.19-2.08-4.46M289.11,8.54c1.09,0,1.81-.83,2.02-1.9.23-1.13,0-2.03-1.19-2.03-1.05,0-1.88.91-2.09,1.94-.21,1.05.15,1.98,1.26,1.98" style="fill:#005bab; stroke-width:0px;"/><path d="M299.53.31l-.23,1.14h-3.82l-.73,2.82c.73-.6,1.21-.82,2.05-.82,1.65,0,2.32,1.45,1.98,3.07-.38,1.9-1.98,3.16-3.75,3.16-1.45,0-2.41-.76-2.15-2.37h1.32c-.15.86.51,1.23,1.29,1.23,1.13,0,1.78-1.02,1.99-2.07.18-.93-.05-1.88-1.07-1.88-.89,0-1.49.24-1.96,1.18h-1.14l1.33-5.46h4.9Z" style="fill:#005bab; stroke-width:0px;"/><rect width="75.6" height="75.6" style="fill:#005bab; stroke-width:0px;"/><circle cx="37.8" cy="37.8" r="36.38" transform="translate(-.93 .96) rotate(-1.43)" style="fill:#fff; stroke-width:0px;"/><polygon points="5.37 57.24 70.54 57.24 37.8 1.42 5.37 57.24" style="fill:#005bab; stroke-width:0px;"/><path d="M41.7,63.27c0,2.17-1.76,3.94-3.93,3.94h0c-2.17,0-3.93-1.76-3.93-3.94v-19.66c0-2.18,1.76-3.94,3.93-3.94h0c2.17,0,3.93,1.76,3.93,3.94v19.66Z" style="fill:#fff; stroke-width:0px;"/><path d="M96.07,45.27c.91,2.42,1.99,4.35,3.21,5.79,2.15,2.51,4.81,3.77,7.99,3.77,1.72,0,3.21-.55,4.47-1.64,1.26-1.1,1.89-2.62,1.89-4.58,0-1.77-.64-3.3-1.91-4.6-.83-.83-2.57-2.07-5.23-3.74l-4.62-2.88c-1.39-.88-2.5-1.77-3.32-2.67-1.53-1.71-2.28-3.59-2.28-5.66,0-2.74.91-5.01,2.72-6.83,1.81-1.81,4.21-2.73,7.2-2.73,1.23,0,2.71.3,4.44.87,1.73.58,2.72.87,2.97.87.67,0,1.13-.15,1.39-.46.25-.3.45-.73.59-1.29h1.1l1.16,11.5h-1.29c-.88-3.46-2.29-5.87-4.23-7.24-1.94-1.37-3.86-2.06-5.76-2.06-1.48,0-2.77.43-3.86,1.3-1.1.87-1.65,2.09-1.65,3.64,0,1.39.42,2.58,1.27,3.57.84,1.01,2.15,2.06,3.93,3.15l4.75,2.94c2.97,1.83,5.06,3.52,6.27,5.05,1.19,1.54,1.78,3.37,1.78,5.48,0,2.83-1.07,5.19-3.2,7.09-2.13,1.9-4.86,2.85-8.18,2.85-1.67,0-3.41-.32-5.23-.95-1.82-.64-2.86-.95-3.12-.95-.63,0-1.06.2-1.28.6-.22.4-.36.83-.43,1.3h-1.16l-1.61-11.49h1.23Z" style="fill:#005bab; stroke-width:0px;"/><path d="M123.29,55.21c1.69-.18,2.75-.49,3.17-.93.43-.45.64-1.59.64-3.45v-18.79c0-1.54-.24-2.55-.71-3.01-.47-.46-1.51-.75-3.1-.86v-.78h12.01v.78c-1.59.11-2.62.4-3.09.86-.48.46-.71,1.47-.71,3.01v8.46h13.11v-8.46c0-1.54-.23-2.55-.7-3.01-.47-.46-1.5-.75-3.11-.86v-.78h12.01v.78c-1.59.11-2.63.4-3.1.86-.48.46-.71,1.47-.71,3.01v19.31c0,1.56.24,2.56.71,3,.47.44,1.51.73,3.1.87v.78h-12.01v-.78c1.71-.17,2.77-.48,3.18-.92.42-.45.63-1.61.63-3.46v-8.46h-13.11v8.98c0,1.56.24,2.57.71,3.01.48.45,1.51.74,3.09.86v.78h-12.01v-.78Z" style="fill:#005bab; stroke-width:0px;"/><path d="M154.54,55.21c1.73-.12,2.85-.38,3.36-.78.51-.39.77-1.42.77-3.08v-19.31c0-1.59-.26-2.61-.77-3.06-.51-.45-1.63-.72-3.36-.81v-.78h12.66v.78c-1.73.09-2.85.35-3.37.81-.51.46-.77,1.48-.77,3.06v19.31c0,1.66.25,2.69.77,3.08.51.4,1.63.66,3.37.78v.78h-12.66v-.78Z" style="fill:#005bab; stroke-width:0px;"/><path d="M168.59,55.21c1.79-.18,2.93-.58,3.44-1.21.51-.63.76-2.09.76-4.37v-19.09l-.59-.7c-.63-.74-1.17-1.2-1.61-1.38-.44-.18-1.11-.28-1.99-.31v-.78h7.35l16.73,20.78v-14.45c0-2.38-.35-3.93-1.05-4.64-.46-.46-1.49-.76-3.08-.91v-.78h10.14v.78c-1.65.17-2.75.57-3.3,1.21-.55.63-.83,2.09-.83,4.36v22.84h-.73l-19.16-23.79v16.86c0,2.37.35,3.91,1.04,4.63.45.47,1.46.78,3.03.95v.78h-10.14v-.78Z" style="fill:#005bab; stroke-width:0px;"/><path d="M200.22,54.96c2.09-.22,3.4-.61,3.93-1.15.52-.54.79-1.97.79-4.27v-23.37c0-1.93-.29-3.18-.88-3.77-.58-.58-1.86-.94-3.83-1.08v-1.03h14.91v1.03c-1.96.14-3.24.5-3.83,1.08-.59.58-.88,1.83-.88,3.77v10.46h16.4v-10.46c0-1.93-.29-3.18-.86-3.77-.58-.58-1.86-.94-3.85-1.08v-1.03h14.92v1.03c-1.97.14-3.25.5-3.84,1.08-.59.58-.87,1.83-.87,3.77v23.95c0,1.95.29,3.21.87,3.76.59.55,1.87.91,3.84,1.08v1.03h-14.92v-1.03c2.11-.21,3.42-.58,3.94-1.14.52-.55.78-1.98.78-4.28v-10.53h-16.4v11.11c0,1.95.3,3.22.88,3.77.59.56,1.87.92,3.83,1.07v1.03h-14.91v-1.03Z" style="fill:#005bab; stroke-width:0px;"/><path d="M238.93,55.99v-.77c1.14-.13,1.99-.54,2.57-1.25.57-.7,1.53-2.64,2.88-5.83l8.99-21.21h.88l10.72,24.45c.7,1.64,1.26,2.65,1.69,3.04.42.39,1.13.66,2.13.8v.77h-10.99v-.77c1.27-.11,2.08-.25,2.45-.41.37-.16.55-.56.55-1.19,0-.21-.07-.58-.21-1.11-.14-.53-.34-1.09-.59-1.68l-1.72-4.14h-11.31c-1.17,2.82-1.85,4.54-2.07,5.16-.22.62-.33,1.11-.33,1.48,0,.73.29,1.23.89,1.51.37.17,1.06.3,2.08.38v.77h-8.59ZM257.53,44.95l-4.95-11.91-4.92,11.91h9.87Z" style="fill:#005bab; stroke-width:0px;"/><path d="M269.92,55.21c1.78-.18,2.93-.58,3.44-1.21.51-.63.76-2.09.76-4.37v-19.09l-.59-.7c-.63-.74-1.17-1.2-1.61-1.38-.44-.18-1.1-.28-1.99-.31v-.78h7.34l16.74,20.78v-14.45c0-2.38-.35-3.93-1.06-4.64-.46-.46-1.49-.76-3.07-.91v-.78h10.13v.78c-1.65.17-2.75.57-3.3,1.21-.55.63-.83,2.09-.83,4.36v22.84h-.73l-19.16-23.79v16.86c0,2.37.35,3.91,1.04,4.63.45.47,1.46.78,3.03.95v.78h-10.13v-.78Z" style="fill:#005bab; stroke-width:0px;"/><path d="M105,65.06v3.44h-.27c-.09-.66-.25-1.19-.47-1.58-.23-.39-.55-.7-.97-.93-.42-.23-.86-.34-1.31-.34-.51,0-.93.15-1.26.46-.33.31-.5.66-.5,1.06,0,.3.11.58.32.83.3.37,1.02.86,2.16,1.47.93.5,1.56.88,1.9,1.15.34.27.6.58.78.94.18.36.28.74.28,1.14,0,.75-.29,1.4-.88,1.95-.58.55-1.34.82-2.25.82-.29,0-.56-.02-.81-.07-.15-.02-.47-.11-.94-.27-.48-.15-.78-.23-.91-.23-.12,0-.22.03-.29.11-.07.07-.12.22-.16.45h-.27v-3.41h.27c.13.71.3,1.25.51,1.61.21.35.54.65.99.88.44.23.93.35,1.46.35.61,0,1.09-.16,1.45-.49s.53-.7.53-1.14c0-.25-.07-.49-.2-.74-.13-.25-.34-.48-.63-.7-.19-.15-.71-.46-1.56-.94-.85-.47-1.46-.85-1.82-1.14-.36-.29-.63-.59-.82-.94-.19-.34-.28-.72-.28-1.13,0-.71.27-1.33.82-1.85.55-.52,1.24-.77,2.09-.77.53,0,1.09.13,1.68.39.27.12.47.18.58.18.13,0,.23-.04.31-.11.08-.08.15-.23.19-.46h.27Z" style="fill:#888; stroke-width:0px;"/><path d="M109.66,69.9h4.62v-2.85c0-.51-.03-.84-.1-1.01-.05-.12-.15-.23-.31-.31-.21-.12-.43-.18-.67-.18h-.35v-.27h4.25v.27h-.35c-.23,0-.46.06-.67.17-.16.08-.26.2-.32.36-.06.16-.08.48-.08.97v6.42c0,.5.03.84.09,1,.05.12.15.23.3.31.22.12.44.18.67.18h.35v.27h-4.25v-.27h.35c.41,0,.7-.12.89-.36.12-.16.18-.53.18-1.13v-3.03h-4.62v3.03c0,.5.03.84.1,1,.05.12.15.23.31.31.21.12.43.18.67.18h.36v.27h-4.26v-.27h.35c.41,0,.71-.12.89-.36.12-.16.18-.53.18-1.13v-6.42c0-.51-.03-.84-.09-1.01-.05-.12-.15-.23-.3-.31-.22-.12-.44-.18-.67-.18h-.35v-.27h4.26v.27h-.36c-.23,0-.46.06-.67.17-.15.08-.26.2-.32.36-.06.16-.09.48-.09.97v2.85Z" style="fill:#888; stroke-width:0px;"/><path d="M122.16,74.96v.27h-4.26v-.27h.35c.41,0,.71-.12.89-.36.12-.16.18-.53.18-1.13v-6.42c0-.5-.03-.83-.09-1-.05-.12-.15-.23-.3-.31-.22-.12-.44-.18-.67-.18h-.35v-.27h4.26v.27h-.36c-.41,0-.7.12-.89.36-.12.15-.18.53-.18,1.13v6.42c0,.5.03.84.1,1,.05.12.15.23.31.31.21.12.43.18.67.18h.36Z" style="fill:#888; stroke-width:0px;"/><path d="M122.43,65.29h2.7l6.08,7.46v-5.74c0-.61-.07-.99-.21-1.14-.18-.21-.47-.31-.86-.31h-.34v-.27h3.46v.27h-.35c-.42,0-.72.13-.89.38-.11.15-.16.51-.16,1.07v8.38h-.26l-6.56-8.01v6.12c0,.61.07.99.2,1.14.19.21.47.31.86.31h.35v.27h-3.46v-.27h.35c.42,0,.73-.13.9-.38.11-.16.16-.51.16-1.07v-6.92c-.29-.34-.51-.56-.66-.67s-.37-.21-.66-.3c-.14-.05-.36-.07-.65-.07v-.27Z" style="fill:#888; stroke-width:0px;"/><path d="M136.67,69.9h4.62v-2.85c0-.51-.03-.84-.09-1.01-.05-.12-.15-.23-.31-.31-.21-.12-.43-.18-.67-.18h-.35v-.27h4.25v.27h-.35c-.23,0-.46.06-.67.17-.16.08-.26.2-.32.36-.06.16-.09.48-.09.97v6.42c0,.5.03.84.1,1,.05.12.15.23.3.31.21.12.44.18.67.18h.35v.27h-4.25v-.27h.35c.41,0,.7-.12.89-.36.12-.16.18-.53.18-1.13v-3.03h-4.62v3.03c0,.5.03.84.09,1,.05.12.15.23.31.31.21.12.43.18.67.18h.36v.27h-4.26v-.27h.35c.41,0,.71-.12.9-.36.12-.16.18-.53.18-1.13v-6.42c0-.51-.03-.84-.1-1.01-.05-.12-.15-.23-.3-.31-.21-.12-.44-.18-.67-.18h-.35v-.27h4.26v.27h-.36c-.23,0-.46.06-.67.17-.15.08-.26.2-.31.36-.06.16-.09.48-.09.97v2.85Z" style="fill:#888; stroke-width:0px;"/><path d="M151.4,71.9h-3.85l-.67,1.57c-.17.39-.25.67-.25.86,0,.15.07.29.22.4.14.12.46.19.94.22v.27h-3.13v-.27c.42-.07.68-.17.81-.29.25-.23.53-.71.83-1.43l3.5-8.18h.26l3.46,8.27c.28.66.53,1.1.76,1.29.23.2.54.31.95.33v.27h-3.92v-.27c.4-.02.66-.09.8-.2.14-.11.21-.25.21-.41,0-.21-.1-.55-.29-1.02l-.6-1.43ZM151.2,71.36l-1.69-4.02-1.73,4.02h3.42Z" style="fill:#888; stroke-width:0px;"/><path d="M155.28,65.29h2.7l6.08,7.46v-5.74c0-.61-.07-.99-.21-1.14-.18-.21-.47-.31-.86-.31h-.34v-.27h3.46v.27h-.35c-.42,0-.72.13-.89.38-.11.15-.16.51-.16,1.07v8.38h-.26l-6.56-8.01v6.12c0,.61.07.99.2,1.14.19.21.47.31.86.31h.35v.27h-3.46v-.27h.35c.42,0,.73-.13.9-.38.11-.16.16-.51.16-1.07v-6.92c-.29-.34-.51-.56-.66-.67s-.37-.21-.66-.3c-.14-.05-.36-.07-.65-.07v-.27Z" style="fill:#888; stroke-width:0px;"/><path d="M179.34,65.06l.23,3.38h-.23c-.3-1.01-.73-1.74-1.3-2.19-.56-.45-1.24-.67-2.02-.67-.66,0-1.26.17-1.79.5-.53.34-.95.87-1.26,1.6-.31.73-.46,1.65-.46,2.74,0,.9.14,1.68.43,2.34.29.66.72,1.17,1.3,1.52.58.35,1.24.53,1.98.53.65,0,1.22-.14,1.71-.41.49-.28,1.04-.83,1.63-1.65l.23.15c-.5.89-1.08,1.53-1.75,1.94-.66.41-1.45.62-2.37.62-1.65,0-2.92-.61-3.83-1.83-.67-.91-1.01-1.98-1.01-3.21,0-.99.22-1.9.67-2.73.45-.83,1.06-1.48,1.84-1.93.78-.46,1.63-.69,2.56-.69.72,0,1.43.18,2.13.53.21.11.35.16.44.16.13,0,.25-.05.34-.14.13-.13.22-.31.27-.55h.26Z" style="fill:#888; stroke-width:0px;"/><path d="M186.78,68.51v4.07c0,.78.02,1.25.05,1.43.04.17.09.29.18.36.08.07.17.1.28.1.15,0,.32-.04.51-.13l.1.26-2.01.83h-.33v-1.42c-.58.62-1.02,1.02-1.32,1.18-.3.16-.62.24-.96.24-.38,0-.7-.11-.98-.33-.28-.22-.47-.5-.57-.84-.11-.34-.16-.83-.16-1.45v-3c0-.31-.03-.54-.1-.66-.07-.12-.17-.22-.31-.28-.13-.07-.38-.1-.73-.09v-.27h2.35v4.5c0,.63.11,1.04.33,1.23s.48.29.79.29c.21,0,.45-.07.71-.2.27-.13.58-.38.95-.75v-3.81c0-.38-.07-.64-.21-.77-.14-.13-.43-.21-.87-.22v-.27h2.29Z" style="fill:#888; stroke-width:0px;"/><path d="M192.84,68.32v2.29h-.24c-.19-.72-.43-1.21-.72-1.47-.29-.26-.66-.39-1.11-.39-.34,0-.62.09-.83.27-.21.18-.31.38-.31.6,0,.27.08.51.23.7.15.2.46.41.92.64l1.07.52c.99.48,1.49,1.12,1.49,1.91,0,.61-.23,1.1-.69,1.48-.46.38-.98.56-1.55.56-.41,0-.88-.07-1.41-.22-.16-.05-.29-.07-.4-.07-.11,0-.2.06-.26.19h-.24v-2.4h.24c.14.69.4,1.2.79,1.55.39.35.82.52,1.3.52.34,0,.61-.1.83-.3.21-.2.32-.44.32-.72,0-.34-.12-.62-.35-.85s-.71-.52-1.42-.87c-.71-.35-1.17-.67-1.39-.95-.22-.28-.33-.63-.33-1.06,0-.55.19-1.02.57-1.39.38-.37.87-.56,1.47-.56.26,0,.58.06.96.17.25.07.42.11.5.11s.14-.02.18-.05.1-.11.15-.23h.24Z" style="fill:#888; stroke-width:0px;"/><path d="M196.4,66.31v2.21h1.57v.51h-1.57v4.35c0,.43.06.73.19.88.13.15.29.23.48.23.16,0,.32-.05.47-.15.15-.1.27-.25.35-.44h.29c-.17.48-.41.84-.73,1.08-.31.24-.64.36-.97.36-.23,0-.45-.06-.66-.19-.21-.13-.37-.3-.48-.54-.1-.23-.15-.59-.15-1.07v-4.52h-1.06v-.24c.27-.11.54-.29.83-.55.28-.26.53-.56.75-.91.11-.19.27-.53.47-1.02h.23Z" style="fill:#888; stroke-width:0px;"/><path d="M202.01,68.32c1.02,0,1.83.39,2.45,1.16.52.66.79,1.42.79,2.27,0,.6-.15,1.21-.43,1.82-.29.62-.69,1.08-1.19,1.39-.51.31-1.07.47-1.69.47-1.01,0-1.82-.4-2.41-1.21-.5-.68-.75-1.44-.75-2.29,0-.62.15-1.23.46-1.84.31-.61.71-1.06,1.21-1.35.5-.29,1.03-.43,1.58-.43ZM201.79,68.8c-.26,0-.52.07-.78.23-.26.15-.47.42-.63.81s-.24.88-.24,1.49c0,.98.19,1.82.58,2.53.39.71.9,1.06,1.54,1.06.47,0,.87-.2,1.17-.59.31-.39.46-1.06.46-2.02,0-1.19-.26-2.13-.77-2.82-.35-.47-.79-.7-1.33-.7Z" style="fill:#888; stroke-width:0px;"/><path d="M208.34,69.75c.49-.49.78-.77.87-.84.22-.19.46-.33.71-.43.25-.1.51-.15.75-.15.42,0,.78.12,1.09.37.3.25.51.6.61,1.06.5-.59.93-.97,1.28-1.15.35-.18.7-.27,1.07-.27s.67.09.95.27c.28.18.49.48.66.9.11.28.16.73.16,1.33v2.89c0,.42.03.71.1.86.05.11.14.2.27.27.13.08.35.11.65.11v.26h-3.31v-.26h.14c.29,0,.51-.06.67-.17.11-.08.19-.2.24-.37.02-.09.03-.32.03-.71v-2.89c0-.55-.07-.93-.2-1.16-.19-.31-.5-.47-.92-.47-.26,0-.52.06-.78.19-.26.13-.58.37-.95.72v.08s0,.31,0,.31v3.21c0,.46.03.74.08.86.05.11.15.21.29.28.14.08.38.11.73.11v.26h-3.39v-.26c.37,0,.63-.05.77-.13.14-.09.24-.22.29-.4.02-.08.04-.33.04-.73v-2.89c0-.55-.08-.94-.24-1.18-.21-.31-.52-.47-.9-.47-.26,0-.53.07-.79.21-.41.22-.72.46-.94.73v3.6c0,.44.03.73.09.86.06.13.15.23.27.3.12.06.36.1.73.1v.26h-3.32v-.26c.31,0,.52-.03.65-.1.12-.07.21-.17.28-.31.06-.14.1-.43.1-.84v-2.57c0-.74-.02-1.22-.07-1.43-.03-.16-.09-.27-.16-.33-.07-.06-.17-.09-.3-.09-.14,0-.3.04-.49.11l-.11-.26,2.02-.82h.32v1.43Z" style="fill:#888; stroke-width:0px;"/><path d="M222.47,68.32v2.29h-.24c-.19-.72-.43-1.21-.72-1.47-.29-.26-.66-.39-1.11-.39-.34,0-.62.09-.83.27-.21.18-.31.38-.31.6,0,.27.08.51.23.7.15.2.46.41.92.64l1.07.52c.99.48,1.49,1.12,1.49,1.91,0,.61-.23,1.1-.69,1.48-.46.38-.98.56-1.55.56-.41,0-.88-.07-1.41-.22-.16-.05-.29-.07-.4-.07-.11,0-.2.06-.26.19h-.24v-2.4h.24c.14.69.4,1.2.79,1.55.39.35.82.52,1.3.52.34,0,.61-.1.83-.3.21-.2.32-.44.32-.72,0-.34-.12-.62-.35-.85-.24-.23-.71-.52-1.42-.87-.71-.35-1.17-.67-1.39-.95-.22-.28-.33-.63-.33-1.06,0-.55.19-1.02.57-1.39.38-.37.87-.56,1.47-.56.26,0,.58.06.96.17.25.07.42.11.5.11s.14-.02.18-.05c.04-.03.1-.11.15-.23h.24Z" style="fill:#888; stroke-width:0px;"/><path d="M234.36,65.06v3.44h-.27c-.09-.66-.25-1.19-.47-1.58-.22-.39-.55-.7-.97-.93s-.85-.34-1.3-.34c-.51,0-.93.15-1.26.46-.33.31-.5.66-.5,1.06,0,.3.1.58.31.83.3.37,1.02.86,2.16,1.47.93.5,1.56.88,1.9,1.15.34.27.6.58.78.94.18.36.27.74.27,1.14,0,.75-.29,1.4-.88,1.95-.58.55-1.33.82-2.25.82-.29,0-.56-.02-.81-.07-.15-.02-.47-.11-.94-.27-.47-.15-.78-.23-.9-.23s-.22.03-.29.11c-.07.07-.12.22-.16.45h-.27v-3.41h.27c.13.71.3,1.25.51,1.61.21.35.54.65.99.88.44.23.93.35,1.45.35.61,0,1.1-.16,1.45-.49.36-.32.53-.7.53-1.14,0-.25-.07-.49-.2-.74-.13-.25-.34-.48-.63-.7-.19-.15-.71-.46-1.56-.94-.85-.47-1.45-.85-1.82-1.14-.36-.29-.63-.59-.82-.94-.19-.34-.28-.72-.28-1.13,0-.71.27-1.33.82-1.85.55-.52,1.24-.77,2.09-.77.53,0,1.09.13,1.68.39.27.12.47.18.58.18.13,0,.23-.04.31-.11.08-.08.15-.23.19-.46h.27Z" style="fill:#888; stroke-width:0px;"/><path d="M237.53,71.05c0,1,.24,1.78.73,2.35.49.57,1.06.85,1.72.85.44,0,.82-.12,1.15-.37.33-.24.6-.66.82-1.24l.23.15c-.1.67-.4,1.28-.89,1.83-.5.55-1.11.82-1.86.82-.81,0-1.5-.31-2.07-.94-.57-.63-.86-1.47-.86-2.53,0-1.15.29-2.05.89-2.69.59-.65,1.33-.97,2.22-.97.75,0,1.37.25,1.86.74.48.5.73,1.16.73,1.99h-4.64ZM237.53,70.62h3.11c-.02-.43-.07-.73-.15-.91-.12-.27-.31-.49-.55-.65-.24-.16-.5-.23-.76-.23-.41,0-.77.16-1.09.47-.32.32-.51.76-.56,1.32Z" style="fill:#888; stroke-width:0px;"/><path d="M245.14,68.32v1.51c.56-1.01,1.14-1.51,1.73-1.51.27,0,.49.08.67.25.18.16.26.35.26.57,0,.19-.06.35-.19.49-.13.13-.28.2-.46.2s-.36-.09-.57-.25c-.21-.17-.37-.25-.47-.25-.09,0-.18.05-.29.15-.22.2-.45.53-.68.99v3.22c0,.37.05.65.14.84.06.13.18.24.34.33.16.09.39.13.7.13v.26h-3.44v-.26c.34,0,.6-.05.76-.16.12-.08.21-.2.26-.37.02-.08.03-.32.03-.71v-2.61c0-.78-.01-1.25-.05-1.39s-.09-.26-.18-.33c-.09-.07-.19-.1-.32-.1-.15,0-.32.04-.51.11l-.07-.26,2.03-.82h.31Z" style="fill:#888; stroke-width:0px;"/><path d="M247.93,68.51h3.16v.27h-.21c-.19,0-.34.05-.44.14-.1.09-.15.22-.15.37,0,.17.05.38.15.61l1.56,3.71,1.57-3.85c.11-.27.17-.48.17-.62,0-.07-.02-.13-.06-.17-.05-.07-.12-.12-.21-.15-.08-.03-.25-.04-.51-.04v-.27h2.19v.27c-.25.02-.43.07-.53.15-.17.15-.33.39-.46.74l-2.38,5.76h-.3l-2.4-5.67c-.11-.26-.21-.45-.31-.57-.1-.11-.22-.21-.37-.29-.08-.05-.25-.09-.49-.13v-.27Z" style="fill:#888; stroke-width:0px;"/><path d="M258.21,68.32v5.4c0,.42.03.7.09.84.06.14.15.24.27.31.12.07.34.1.66.1v.26h-3.26v-.26c.33,0,.55-.03.66-.1.11-.06.2-.17.27-.31.06-.15.1-.43.1-.84v-2.59c0-.73-.02-1.2-.07-1.42-.03-.16-.09-.26-.16-.33-.07-.06-.18-.09-.3-.09-.14,0-.3.04-.5.11l-.1-.26,2.02-.82h.33ZM257.6,64.81c.21,0,.38.07.53.21.14.14.22.32.22.53s-.07.38-.22.53-.32.22-.53.22-.38-.07-.53-.22c-.15-.15-.22-.32-.22-.53s.07-.38.22-.53c.14-.14.32-.21.53-.21Z" style="fill:#888; stroke-width:0px;"/><path d="M265.88,72.68c-.18.89-.54,1.57-1.06,2.04-.53.48-1.11.71-1.75.71-.76,0-1.43-.32-1.99-.96-.57-.64-.85-1.51-.85-2.6s.31-1.91.94-2.57c.63-.66,1.38-.99,2.26-.99.66,0,1.2.17,1.63.53.43.35.64.71.64,1.09,0,.19-.06.34-.18.45-.12.11-.29.17-.5.17-.29,0-.51-.1-.65-.28-.08-.1-.14-.3-.17-.59-.03-.29-.13-.51-.3-.66-.17-.15-.41-.22-.71-.22-.49,0-.88.18-1.18.54-.39.48-.59,1.11-.59,1.9s.2,1.51.59,2.12.93.92,1.59.92c.48,0,.91-.17,1.29-.49.27-.22.53-.63.78-1.23l.21.1Z" style="fill:#888; stroke-width:0px;"/><path d="M268.07,71.05c0,1,.23,1.78.73,2.35.49.57,1.06.85,1.72.85.44,0,.82-.12,1.15-.37.33-.24.6-.66.82-1.24l.23.15c-.1.67-.4,1.28-.89,1.83-.49.55-1.11.82-1.86.82-.81,0-1.5-.31-2.07-.94-.58-.63-.86-1.47-.86-2.53,0-1.15.3-2.05.88-2.69.59-.65,1.33-.97,2.22-.97.75,0,1.37.25,1.86.74.49.5.73,1.16.73,1.99h-4.64ZM268.07,70.62h3.11c-.03-.43-.08-.73-.15-.91-.12-.27-.3-.49-.55-.65s-.5-.23-.76-.23c-.41,0-.77.16-1.09.47-.32.32-.51.76-.56,1.32Z" style="fill:#888; stroke-width:0px;"/><path d="M281.74,74.96v.27h-4.26v-.27h.35c.41,0,.71-.12.89-.36.12-.16.18-.53.18-1.13v-6.42c0-.5-.03-.83-.1-1-.05-.12-.15-.23-.3-.31-.22-.12-.44-.18-.67-.18h-.35v-.27h4.26v.27h-.36c-.41,0-.7.12-.89.36-.12.15-.18.53-.18,1.13v6.42c0,.5.03.84.1,1,.05.12.15.23.31.31.21.12.43.18.67.18h.36Z" style="fill:#888; stroke-width:0px;"/><path d="M284.64,69.74c.79-.95,1.54-1.42,2.25-1.42.37,0,.68.09.95.27.26.18.47.49.63.91.11.29.16.74.16,1.35v2.87c0,.42.03.71.1.86.05.12.14.22.26.29.12.07.34.1.66.1v.26h-3.32v-.26h.14c.31,0,.53-.05.66-.14.12-.1.21-.24.26-.42.02-.07.03-.3.03-.69v-2.75c0-.61-.08-1.06-.24-1.33-.16-.27-.43-.41-.8-.41-.58,0-1.16.32-1.74.95v3.54c0,.45.03.73.08.84.07.14.16.25.28.31.12.06.36.1.73.1v.26h-3.32v-.26h.15c.34,0,.57-.09.69-.26.12-.18.18-.51.18-.99v-2.49c0-.81-.02-1.3-.05-1.47-.04-.18-.1-.3-.17-.36-.07-.06-.18-.1-.3-.1-.14,0-.3.04-.49.11l-.11-.26,2.03-.82h.31v1.42Z" style="fill:#888; stroke-width:0px;"/><path d="M296,72.68c-.18.89-.53,1.57-1.06,2.04-.53.48-1.11.71-1.75.71-.76,0-1.43-.32-1.99-.96-.57-.64-.85-1.51-.85-2.6s.31-1.91.94-2.57,1.38-.99,2.26-.99c.66,0,1.2.17,1.63.53.42.35.64.71.64,1.09,0,.19-.06.34-.18.45-.12.11-.29.17-.5.17-.29,0-.5-.1-.65-.28-.08-.1-.14-.3-.17-.59-.03-.29-.12-.51-.3-.66-.17-.15-.41-.22-.71-.22-.49,0-.88.18-1.18.54-.4.48-.59,1.11-.59,1.9s.2,1.51.59,2.12c.39.61.93.92,1.59.92.48,0,.91-.17,1.29-.49.27-.22.53-.63.79-1.23l.21.1Z" style="fill:#888; stroke-width:0px;"/><path d="M298.47,73.81c.23,0,.42.08.58.24s.23.35.23.58-.08.42-.24.58c-.16.16-.35.24-.58.24s-.42-.08-.58-.24c-.16-.16-.24-.35-.24-.58s.08-.42.24-.58c.16-.15.35-.23.58-.23Z" style="fill:#888; stroke-width:0px;"/></svg>